<svg width="306" height="40" viewBox="0 0 306 40" fill="none" xmlns="http://www.w3.org/2000/svg">
<g clip-path="url(#clip0_7139_52)">
<mask id="mask0_7139_52" style="mask-type:luminance" maskUnits="userSpaceOnUse" x="0" y="0" width="306" height="40">
<path d="M305.888 0H0V40H305.888V0Z" fill="white"/>
</mask>
<g mask="url(#mask0_7139_52)">
<path d="M68.3393 9.0318L68.0066 12.6422L67.8843 12.401C66.6186 9.90857 63.6744 8.35986 60.2008 8.35986C54.0275 8.35986 49.8809 12.9447 49.8809 19.7693C49.8809 26.973 53.9147 31.6286 60.1549 31.6286C63.4107 31.6286 66.1636 30.1699 67.7064 27.6277L67.8269 27.4285L68.2017 31.0447H73.1628V9.0318H68.3373H68.3393ZM61.4109 26.8485C57.6332 26.8485 55.1918 24.1761 55.1918 20.0372C55.1918 15.8985 57.7097 13.1821 61.4549 13.1821C65.2001 13.1821 67.762 15.9368 67.762 20.0372C67.762 24.1378 65.2097 26.8485 61.409 26.8485H61.4109Z" fill="white"/>
<path d="M101.233 13.14C103.977 13.14 105.615 14.9816 105.615 18.0656V31.0467H110.882V16.6298C110.882 11.4516 107.795 8.36182 102.625 8.36182C99.3809 8.36182 96.7599 9.922 95.6147 12.5332L95.544 12.694L95.4713 12.5351C94.2459 9.84352 91.8352 8.36182 88.6845 8.36182C85.8225 8.36182 83.4614 9.54296 82.2073 11.6009L82.0984 11.7789L81.6261 9.03566H76.751V31.0486H82.062V18.5614C82.062 14.5987 84.5339 13.1878 86.8473 13.1878C89.5619 13.1878 91.1832 14.995 91.1832 18.0234V31.0486H96.4941V18.5614C96.4941 15.1673 98.2663 13.1419 101.233 13.1419V13.14Z" fill="white"/>
<path d="M127.173 31.6286C133.415 31.6286 137.447 26.973 137.447 19.7693C137.447 12.5657 133.413 8.35986 127.173 8.35986C123.76 8.35986 120.938 9.85496 119.623 12.357L119.503 12.5848L119.124 9.0318H114.209V39.998H119.52V27.8841L119.665 28.1177C121.025 30.3153 123.831 31.6268 127.173 31.6268V31.6286ZM125.873 13.184C129.651 13.184 132.092 15.8755 132.092 20.0393C132.092 24.2028 129.651 26.8503 125.873 26.8503C122.095 26.8503 119.564 24.1128 119.564 20.0393C119.564 15.9655 122.099 13.184 125.873 13.184Z" fill="white"/>
<path d="M145.145 0.0786133H139.878V31.0449H145.145V0.0786133Z" fill="white"/>
<path d="M158.449 8.36027C152.005 8.36027 147.503 13.1633 147.503 20.0396C147.503 26.9159 152.078 31.629 158.63 31.629C164.344 31.629 168.32 28.7881 169.289 24.0214H164.379C163.72 26.1348 161.714 27.2968 158.718 27.2968C155.03 27.2968 152.951 25.2945 152.544 21.3471L152.535 21.2609H152.621L169.215 21.215V19.6318C169.215 12.7824 164.987 8.35645 158.448 8.35645L158.449 8.36027ZM163.951 17.9186H152.667L152.682 17.8267C153.227 14.4651 155.236 12.6886 158.496 12.6886C161.756 12.6886 163.951 14.7101 163.951 17.8381V17.9167V17.9186Z" fill="white"/>
<path d="M196.15 13.14C198.893 13.14 200.532 14.9816 200.532 18.0656V31.0467H205.798V16.6298C205.798 11.4516 202.712 8.36182 197.542 8.36182C194.298 8.36182 191.676 9.922 190.531 12.5332L190.461 12.694L190.387 12.5351C189.163 9.84352 186.752 8.36182 183.601 8.36182C180.739 8.36182 178.378 9.54296 177.124 11.6009L177.015 11.7789L176.542 9.03566H171.667V31.0486H176.979V18.5614C176.979 14.5987 179.45 13.1878 181.763 13.1878C184.478 13.1878 186.099 14.995 186.099 18.0234V31.0486H191.411V18.5614C191.411 15.1673 193.182 13.1419 196.15 13.1419V13.14Z" fill="white"/>
<path d="M226.489 9.0318L226.156 12.6422L226.033 12.401C224.767 9.90857 221.824 8.35986 218.351 8.35986C212.176 8.35986 208.03 12.9447 208.03 19.7693C208.03 26.973 212.064 31.6286 218.304 31.6286C221.561 31.6286 224.313 30.1699 225.857 27.6277L225.977 27.4285L226.351 31.0447H231.312V9.0318H226.487H226.489ZM219.56 26.8485C215.782 26.8485 213.342 24.1761 213.342 20.0372C213.342 15.8985 215.859 13.1821 219.604 13.1821C223.349 13.1821 225.911 15.9368 225.911 20.0372C225.911 24.1378 223.358 26.8485 219.559 26.8485H219.56Z" fill="white"/>
<path d="M246.7 13.8579H248.638V8.9266C247.813 8.72368 247.067 8.62988 246.296 8.62988C243.512 8.62988 241.351 9.9546 240.362 12.2633L240.242 12.5447L239.905 9.07974H234.9V31.0467H240.211V20.3551C240.211 16.1667 242.515 13.8598 246.697 13.8598L246.7 13.8579Z" fill="white"/>
<path d="M270.958 9.03196H264.318L255.6 18.4447V0.0786133H250.335V31.0449H255.6V25.1238L258.919 21.6627L258.972 21.7489L264.73 31.0449H270.822L262.616 17.7402L270.958 9.03196Z" fill="white"/>
<path d="M280.451 8.36027C274.005 8.36027 269.505 13.1633 269.505 20.0396C269.505 26.9159 274.079 31.629 280.631 31.629C286.345 31.629 290.321 28.7881 291.292 24.0214H286.379C285.722 26.1348 283.714 27.2968 280.718 27.2968C277.031 27.2968 274.952 25.2945 274.545 21.3471L274.536 21.2609H274.622L291.217 21.215V19.6318C291.217 12.7824 286.989 8.35645 280.45 8.35645L280.451 8.36027ZM285.953 17.9186H274.668L274.684 17.8267C275.229 14.4651 277.237 12.6886 280.497 12.6886C283.756 12.6886 285.953 14.7101 285.953 17.8381V17.9167V17.9186Z" fill="white"/>
<path d="M301.761 31.5392C303.316 31.5392 304.704 31.2769 305.888 30.7619L305.281 26.47C304.513 26.7189 303.778 26.8491 303.149 26.8491C301.225 26.8491 300.247 25.6295 300.247 23.2252V13.4525H305.312V9.03233H300.247V2.12158H294.981V9.03233H291.574V13.4525H294.981V24.167C294.981 29.0581 297.262 31.5392 301.761 31.5392Z" fill="white"/>
<path d="M29.736 31.1233H38.0142C38.5342 31.1233 38.9567 30.7002 38.9567 30.1795V15.8794C38.9567 15.3587 38.5342 14.9356 38.0142 14.9356H29.8833C28.438 14.9356 27.2622 13.7583 27.2622 12.3111V0.943767C27.2622 0.423067 26.8397 0 26.3197 0H17.4393C17.1507 0 16.8831 0.12826 16.7033 0.354152L0.206474 21.0309C0.0726482 21.1973 0 21.4061 0 21.6205V30.1814C0 30.702 0.422506 31.1252 0.942516 31.1252H9.8209C10.1096 31.1252 10.3772 30.9969 10.5569 30.7709L20.3032 18.5575C20.634 18.1422 21.1234 17.9028 21.6453 17.9028C21.8423 17.9028 22.0373 17.9373 22.2266 18.0023C22.93 18.2494 23.385 18.8906 23.385 19.6372V24.7658C23.385 28.2709 26.2336 31.1233 29.7341 31.1233H29.736Z" fill="white"/>
</g>
</g>
<defs>
<clipPath id="clip0_7139_52">
<rect width="306" height="40" fill="white"/>
</clipPath>
</defs>
</svg>
